<svg width="406" height="406" viewBox="0 0 406 406" fill="none" xmlns="http://www.w3.org/2000/svg">
<path d="M226.25 16.5988L351.62 88.9813C366.317 97.4664 375.37 113.147 375.37 130.118V274.883C375.37 291.853 366.317 307.534 351.62 316.019L226.25 388.401C211.553 396.886 193.447 396.886 178.75 388.401L53.3798 316.019C38.6833 307.534 29.6299 291.853 29.6299 274.882V130.118C29.6299 113.147 38.6833 97.4664 53.3799 88.9813L178.75 16.5988C193.447 8.11376 211.553 8.11376 226.25 16.5988Z" fill="#F6AE5C" fill-opacity="0.933333" stroke="black" stroke-width="5"/>
<mask id="path-2-inside-1_73_27" fill="white">
<path d="M322 202.5C322 217.668 318.922 232.687 312.942 246.7C306.961 260.713 298.196 273.446 287.146 284.171C276.096 294.896 262.977 303.404 248.539 309.208C234.102 315.013 218.627 318 203 318C187.373 318 171.898 315.013 157.461 309.208C143.023 303.404 129.904 294.896 118.854 284.171C107.804 273.446 99.0386 260.713 93.0583 246.7C87.078 232.687 84 217.668 84 202.5L203 202.5H322Z"/>
</mask>
<path d="M322 202.5C322 217.668 318.922 232.687 312.942 246.7C306.961 260.713 298.196 273.446 287.146 284.171C276.096 294.896 262.977 303.404 248.539 309.208C234.102 315.013 218.627 318 203 318C187.373 318 171.898 315.013 157.461 309.208C143.023 303.404 129.904 294.896 118.854 284.171C107.804 273.446 99.0386 260.713 93.0583 246.7C87.078 232.687 84 217.668 84 202.5L203 202.5H322Z" fill="white" stroke="black" stroke-width="10" mask="url(#path-2-inside-1_73_27)"/>
<mask id="path-3-inside-2_73_27" fill="white">
<path d="M84 202.5C84 187.332 87.078 172.313 93.0583 158.3C99.0387 144.287 107.804 131.554 118.854 120.829C129.904 110.104 143.023 101.596 157.461 95.7919C171.898 89.9875 187.373 87 203 87C218.627 87 234.102 89.9875 248.539 95.7919C262.977 101.596 276.096 110.104 287.146 120.829C298.196 131.554 306.961 144.287 312.942 158.3C318.922 172.313 322 187.332 322 202.5L203 202.5L84 202.5Z"/>
</mask>
<path d="M84 202.5C84 187.332 87.078 172.313 93.0583 158.3C99.0387 144.287 107.804 131.554 118.854 120.829C129.904 110.104 143.023 101.596 157.461 95.7919C171.898 89.9875 187.373 87 203 87C218.627 87 234.102 89.9875 248.539 95.7919C262.977 101.596 276.096 110.104 287.146 120.829C298.196 131.554 306.961 144.287 312.942 158.3C318.922 172.313 322 187.332 322 202.5L203 202.5L84 202.5Z" fill="#F65C5C" stroke="black" stroke-width="10" mask="url(#path-3-inside-2_73_27)"/>
<circle cx="202.5" cy="202.5" r="17.5" fill="white" stroke="black" stroke-width="4"/>
</svg>
